/* XPM */
static char * C:\source\windows\projects\OrangeFS\x64\Debug\file_icon_xpm[] = {
"16 16 17 1",
" 	c None",
".	c #FFFFFF",
"+	c #DCDADA",
"@	c #D9D7D7",
"#	c #E2E2E2",
"$	c #F2F1F1",
"%	c #E2E0E0",
"&	c #D5D3D3",
"*	c #FDFDFD",
"=	c #FBFBFB",
"-	c #F8F8F8",
";	c #F5F5F5",
">	c #F3F3F3",
",	c #F0F0F0",
"'	c #EDEDED",
")	c #EBEBEB",
"!	c #EAEAEA",
"................",
"..........+.....",
"..........@#....",
"..........$%&...",
"................",
"................",
"..***********...",
"..===========...",
"..-----------...",
"..;;;;;;;;;;;...",
"..>>>>>>>>>>>...",
"..,,,,,,,,,,,...",
"..'''''''''''...",
"..)))))))))))...",
"..!!!!!!!!!!!...",
"................"};
