/* XPM */
static char * C:\source\windows\projects\OrangeFS\x64\Debug\folder_icon_xpm[] = {
"16 16 140 2",
"  	c None",
". 	c #FFFFFF",
"+ 	c #FEFEFE",
"@ 	c #FFFFFD",
"# 	c #FDF9E6",
"$ 	c #F4E295",
"% 	c #F3D68D",
"& 	c #FADF9D",
"* 	c #FCE6B0",
"= 	c #FDEBC1",
"- 	c #FDF1D2",
"; 	c #FEF6E3",
"> 	c #FEFBF3",
", 	c #FDF9E7",
"' 	c #FDEC95",
") 	c #FEF199",
"! 	c #F8E293",
"~ 	c #F9D787",
"{ 	c #FAD786",
"] 	c #FAD787",
"^ 	c #F8D78D",
"/ 	c #FCE891",
"( 	c #FEEB94",
"_ 	c #FFEC93",
": 	c #D9BE78",
"< 	c #F9D785",
"[ 	c #FBD887",
"} 	c #F8D78A",
"| 	c #FDF8E5",
"1 	c #FCE48F",
"2 	c #FEE992",
"3 	c #FFE992",
"4 	c #B89F60",
"5 	c #B09556",
"6 	c #FCD988",
"7 	c #F8D68A",
"8 	c #FDF7E5",
"9 	c #FADF8D",
"0 	c #FEE48F",
"a 	c #FFE48F",
"b 	c #B69D5E",
"c 	c #A78C4D",
"d 	c #FBD886",
"e 	c #F6D689",
"f 	c #FDF6E4",
"g 	c #FADB88",
"h 	c #FEE08B",
"i 	c #FFE18C",
"j 	c #B49A5D",
"k 	c #A3884B",
"l 	c #F7D485",
"m 	c #F8D686",
"n 	c #F6D488",
"o 	c #FCF5E3",
"p 	c #FDDC89",
"q 	c #FFDE89",
"r 	c #B1975A",
"s 	c #A1874B",
"t 	c #F2D081",
"u 	c #F4D182",
"v 	c #F5D383",
"w 	c #F1D085",
"x 	c #FBF4E3",
"y 	c #F4D282",
"z 	c #FAD785",
"A 	c #FBD885",
"B 	c #AD9558",
"C 	c #9D8448",
"D 	c #EDCD7E",
"E 	c #EECD7F",
"F 	c #F0CF80",
"G 	c #EBCC82",
"H 	c #FAF3E2",
"I 	c #EFCD7E",
"J 	c #F4D281",
"K 	c #F7D484",
"L 	c #A68C4E",
"M 	c #9A8045",
"N 	c #E9C87B",
"O 	c #E9C97B",
"P 	c #EAC97B",
"Q 	c #E8C97C",
"R 	c #FBF5E7",
"S 	c #F9F1E1",
"T 	c #E9C77A",
"U 	c #CDAF68",
"V 	c #8F773E",
"W 	c #B09454",
"X 	c #E3C477",
"Y 	c #E4C478",
"Z 	c #E5C579",
"` 	c #E5C577",
" .	c #E1CA93",
"..	c #F7F0E0",
"+.	c #E2C276",
"@.	c #C8AB65",
"#.	c #8A723A",
"$.	c #CDAE67",
"%.	c #DEBE73",
"&.	c #DFBF74",
"*.	c #E0C075",
"=.	c #DFBE6F",
"-.	c #E7E0D1",
";.	c #E6E6E6",
">.	c #EBEBEB",
",.	c #F6F6F6",
"'.	c #F5EEDD",
").	c #DABB71",
"!.	c #E2C376",
"~.	c #C2A561",
"{.	c #866E38",
"].	c #C7A964",
"^.	c #D8B970",
"/.	c #DABA70",
"(.	c #DCBC72",
"_.	c #DCBB6C",
":.	c #D4CCBA",
"<.	c #CBCBCB",
"[.	c #CECECE",
"}.	c #F8F8F8",
"|.	c #DEBF74",
"1.	c #C2A86A",
"2.	c #93835E",
"3.	c #C2A562",
"4.	c #D2B46C",
"5.	c #D4B56D",
"6.	c #D5B76E",
"7.	c #D9B768",
"8.	c #9BAEC6",
"9.	c #C6C6C6",
"0.	c #E1E1E1",
"a.	c #E5D1A0",
"b.	c #C1A970",
"c.	c #F7F3E8",
"d.	c #EADDBE",
"e.	c #DDC794",
"f.	c #CAAD66",
"g.	c #C8BDA3",
"h.	c #DDDDDD",
"i.	c #E5DCC6",
". . + @ . . . . . . . . . . . . ",
". . # $ % & * = - ; > . . . . . ",
". . , ' ) ! ~ { { { ] ^ . . . . ",
". . # / ( _ : < { [ [ } . . . . ",
". . | 1 2 3 4 5 6 [ [ 7 . . . . ",
". . 8 9 0 a b c [ d [ e . . . . ",
". . f g h i j k l m ~ n . . . . ",
". . o < p q r s t u v w . . . . ",
". . x y z A B C D E F G . . . . ",
". . H I J K L M N O P Q R . . . ",
". . S T I U V W X Y Z `  .. . . ",
". . ..+.N @.#.$.%.&.*.=.-.;.>.,.",
". . '.).!.~.{.].^./.(._.:.<.[.}.",
". . .  .|.1.2.3.4.5.6.7.8.9.0.. ",
". . . . a.b.;.. c.d.e.f.g.h.. . ",
". . . . . i.. . . . . . . . . . "};
